<svg width="174" height="15" viewBox="0 0 174 15" xmlns="http://www.w3.org/2000/svg"><title>HYPERSCIENCE Copy 3</title><path d="M8.556.43h1.331v13.537h-1.33V7.643H1.33v6.324H0V.43h1.331v5.936h7.225V.431zm17.838 0l-4.811 7.987v5.55h-1.33V8.378L15.46.431h1.502l3.974 6.632L24.89.431h1.503zm10.326 0c1.192 0 2.187.407 2.986 1.219.798.812 1.197 1.824 1.197 3.036s-.399 2.224-1.197 3.036c-.8.812-1.794 1.218-2.986 1.218h-3.422v5.028h-1.331V.43h4.753zm0 7.233c.824 0 1.506-.28 2.044-.841.54-.561.808-1.273.808-2.137 0-.864-.269-1.576-.808-2.137-.538-.56-1.22-.841-2.044-.841h-3.422v5.956h3.422zm11.658 5.027h6.465v1.277h-7.796V.43h7.7v1.276h-6.369v4.795h5.894V7.78h-5.894v4.911zm20.785 1.277l-3.119-5.415h-3.726v5.415h-1.331V.43h5.324c1.102 0 2.044.396 2.823 1.189.78.793 1.17 1.75 1.17 2.871 0 .916-.27 1.731-.809 2.447a3.898 3.898 0 0 1-2.063 1.44l3.252 5.589h-1.521zm-6.845-12.26v5.569h3.993c.735 0 1.362-.274 1.882-.822.52-.548.78-1.202.78-1.963 0-.773-.26-1.43-.78-1.972-.52-.541-1.147-.812-1.882-.812h-3.993zM80.44 14.199c-1.217 0-2.26-.294-3.128-.88-.868-.587-1.473-1.396-1.815-2.427l1.14-.677c.241.838.685 1.492 1.331 1.963.647.47 1.477.706 2.491.706.989 0 1.759-.223 2.31-.667.552-.445.827-1.035.827-1.77 0-.709-.253-1.244-.76-1.605-.507-.36-1.344-.735-2.51-1.121-1.382-.464-2.294-.838-2.738-1.122-1.014-.619-1.521-1.515-1.521-2.688 0-1.147.393-2.053 1.179-2.717C78.032.531 79 .2 80.155.2c1.04 0 1.94.274 2.7.821a4.975 4.975 0 0 1 1.692 2.099l-1.122.638c-.608-1.496-1.698-2.243-3.27-2.243-.824 0-1.49.206-1.996.618-.508.413-.761.986-.761 1.721 0 .67.228 1.173.684 1.509.457.335 1.211.676 2.263 1.024.482.168.827.287 1.036.358.21.071.514.187.913.348.4.161.694.303.884.426.19.122.422.29.694.502.273.213.47.426.59.639.12.212.228.47.323.773.095.303.142.628.142.977 0 1.147-.412 2.065-1.235 2.755-.824.69-1.908 1.035-3.252 1.035zm16.754 0c-2.016 0-3.683-.677-5-2.03-1.32-1.354-1.978-3.01-1.978-4.97s.659-3.616 1.977-4.97c1.318-1.354 2.985-2.03 5-2.03 1.23 0 2.358.3 3.385.899a6.24 6.24 0 0 1 2.377 2.427l-1.179.696a4.772 4.772 0 0 0-1.863-1.973 5.222 5.222 0 0 0-2.72-.734c-1.66 0-3.016.547-4.068 1.643C92.073 4.253 91.547 5.6 91.547 7.2c0 1.598.526 2.945 1.578 4.041 1.052 1.096 2.408 1.644 4.069 1.644.988 0 1.895-.245 2.719-.735a4.772 4.772 0 0 0 1.863-1.972l1.179.676c-.545 1.019-1.334 1.83-2.367 2.437a6.588 6.588 0 0 1-3.394.909zM109.004.43h1.33v13.536h-1.33V.43zm9.566 12.26h6.465v1.276h-7.796V.43h7.7v1.276h-6.37v4.795h5.895V7.78h-5.894v4.911zM139.735.43h1.33v13.536h-1.14l-7.416-11.023v11.023h-1.33V.43h1.14l7.416 11.022V.43zm14.453 13.768c-2.016 0-3.683-.677-5.001-2.03-1.318-1.354-1.978-3.01-1.978-4.97s.66-3.616 1.978-4.97c1.318-1.354 2.985-2.03 5-2.03 1.23 0 2.358.3 3.385.899a6.24 6.24 0 0 1 2.377 2.427l-1.18.696a4.772 4.772 0 0 0-1.863-1.973 5.222 5.222 0 0 0-2.718-.734c-1.661 0-3.017.547-4.07 1.643-1.052 1.096-1.578 2.443-1.578 4.042 0 1.598.526 2.945 1.579 4.041 1.052 1.096 2.408 1.644 4.069 1.644.988 0 1.895-.245 2.718-.735a4.772 4.772 0 0 0 1.864-1.972l1.179.676c-.545 1.019-1.334 1.83-2.368 2.437a6.588 6.588 0 0 1-3.393.909zm13.14-1.509h6.465v1.277h-7.796V.43h7.701v1.276h-6.37v4.795h5.895V7.78h-5.895v4.911z" fill="#00F" fill-rule="evenodd"/></svg>