<svg id="Layer_1" data-name="Layer 1" xmlns="http://www.w3.org/2000/svg" viewBox="0 0 283.62 72.02"><defs><style>.cls-1{fill:#7127ff;}.cls-2{fill:#2c2c2d;}</style></defs><title>qf-logo-small</title><path class="cls-1" d="M41.11,0h-10a1.17,1.17,0,0,0-.83.34L.34,30.29a1.16,1.16,0,0,0-.34.83v10a1.14,1.14,0,0,0,.35.83l29.94,30a1.17,1.17,0,0,0,.83.34h10a1.16,1.16,0,0,0,.83-.34l5-5a1.18,1.18,0,0,0,0-1.67L32.79,51.09l9.15-9.15a1.17,1.17,0,0,0,.34-.83v-10a1.16,1.16,0,0,0-.34-.83l-5-5a1.18,1.18,0,0,0-1.67,0L21.14,39.44l-3.33-3.32L36.12,17.81l18.3,18.31L40.28,50.26a1.17,1.17,0,0,0,0,1.66l10,10a1.18,1.18,0,0,0,.83.35h10a1.18,1.18,0,0,0,.83-.35l5-5a1.17,1.17,0,0,0,0-1.66l-4.15-4.16,9.15-9.15a1.16,1.16,0,0,0,.34-.83v-10a1.17,1.17,0,0,0-.34-.83L41.94.35A1.18,1.18,0,0,0,41.11,0ZM2.35,40.62V34L38.27,69.88H31.61Zm37.58,0-8.81,8.81L27.8,46.1,39.93,34ZM36.12,27.8l3.32,3.32L25.3,45.27a1.17,1.17,0,0,0,0,1.66L44.44,66.06l-3.33,3.33L2.84,31.12,31.61,2.35h6.66L10.33,30.29a1.18,1.18,0,0,0,0,1.67l10,10a1.17,1.17,0,0,0,1.66,0ZM44,49.91,56.08,37.78l3.33,3.33-8.81,8.8Zm7.63,10L44,52.27H50.6l7.63,7.63ZM69.39,41.11l-9.15,9.15a1.17,1.17,0,0,0,0,1.66l4.16,4.16-3.33,3.33-8.32-8.32,9.15-9.15a1.17,1.17,0,0,0,0-1.66l-5-5L37.78,16.15l3.33-3.33Zm.49-9.5v6.66L41.94,10.33a1.17,1.17,0,0,0-1.66,0l-5,5L16.15,34.45l-3.33-3.33L41.11,2.84Z"/><path class="cls-2" d="M104.37,19.33H96.55a5.51,5.51,0,0,0-5.5,5.5V46.77a5.5,5.5,0,0,0,5.5,5.49h1.56v3.53h4.7V52.26h1.56a5.5,5.5,0,0,0,5.5-5.49V24.83A5.51,5.51,0,0,0,104.37,19.33Zm.79,28.23H95.75V24h9.41Z"/><path class="cls-2" d="M131,19.63V47.56H121.6V19.63h-4.7V46.77a5.49,5.49,0,0,0,5.49,5.49h7.83a5.49,5.49,0,0,0,5.49-5.49V19.63Z"/><path class="cls-2" d="M156.06,19.33h-7.82a5.51,5.51,0,0,0-5.5,5.5V52h4.7V40.5h9.42V52h4.7V24.83A5.51,5.51,0,0,0,156.06,19.33ZM147.44,35.8V24h9.42V35.8Z"/><path class="cls-2" d="M173.33,47.56V19.63h-4.7V46.77a5.49,5.49,0,0,0,5.49,5.49h9.4v-4.7Z"/><path class="cls-2" d="M232.69,19.33h-7.83a5.51,5.51,0,0,0-5.5,5.5V52h4.71V40.5h9.41V52h4.7V24.83A5.51,5.51,0,0,0,232.69,19.33ZM224.07,35.8V24h9.41V35.8Z"/><path class="cls-2" d="M198.78,24.83V52h4.7V40.5h9.41V35.8h-9.41V24h11.77V19.33h-11A5.5,5.5,0,0,0,198.78,24.83Z"/><rect class="cls-2" x="187.05" y="19.63" width="4.7" height="32.34"/><path class="cls-2" d="M258,19.33h-7.82a5.49,5.49,0,0,0-5.5,5.49v6.36a5.47,5.47,0,0,0,3.76,5.21l10.36,3.46v7.71h-9.42v-4.7h-4.7v3.9a5.5,5.5,0,0,0,5.5,5.5H258a5.5,5.5,0,0,0,5.5-5.5V40.42a5.49,5.49,0,0,0-3.76-5.21l-10.36-3.46V24h9.42v4.71h4.7V24.82A5.49,5.49,0,0,0,258,19.33Z"/><polygon class="cls-2" points="283.46 19.63 267 19.63 267 24.33 272.88 24.33 272.88 51.97 277.58 51.97 277.58 24.33 283.46 24.33 283.46 19.63"/></svg>